<svg width="20" height="20" viewBox="0 0 20 20" fill="none" xmlns="http://www.w3.org/2000/svg">
<g clip-path="url(#clip0_2344_32430)">
<path d="M18.3332 9.16699H14.8582L17.5582 6.46699L16.3832 5.28366L12.4998 9.16699H10.8332V7.50033L14.7165 3.61699L13.5332 2.44199L10.8332 5.14199V1.66699H9.1665V5.14199L6.4665 2.44199L5.28317 3.61699L9.1665 7.50033V9.16699H7.49984L3.6165 5.28366L2.4415 6.46699L5.1415 9.16699H1.6665V10.8337H5.1415L2.4415 13.5337L3.6165 14.717L7.49984 10.8337H9.1665V12.5003L5.28317 16.3837L6.4665 17.5587L9.1665 14.8587V18.3337H10.8332V14.8587L13.5332 17.5587L14.7165 16.3837L10.8332 12.5003V10.8337H12.4998L16.3832 14.717L17.5582 13.5337L14.8582 10.8337H18.3332V9.16699Z" fill="#323232"/>
</g>
<defs>
<clipPath id="clip0_2344_32430">
<rect width="20" height="20" fill="white"/>
</clipPath>
</defs>
</svg>
