<svg width="20" height="20" viewBox="0 0 20 20" fill="none" xmlns="http://www.w3.org/2000/svg">
<g id="beach_access" clip-path="url(#clip0_2344_32539)">
<path id="Vector" d="M10.9392 12.1333L12.1308 10.9416L17.4975 16.3108L16.3083 17.4999L10.9392 12.1333ZM14.5167 7.35828L16.9 4.97494C13.6083 1.68328 8.275 1.67494 4.98334 4.95828C8.25834 3.87494 11.9083 4.74994 14.5167 7.35828ZM4.95834 4.98328C1.675 8.27494 1.68334 13.6083 4.975 16.8999L7.35834 14.5166C4.75 11.9083 3.875 8.25828 4.95834 4.98328ZM4.975 4.96661L4.96667 4.97494C4.65001 7.48328 5.94167 10.7083 8.55 13.3249L13.325 8.54994C10.7167 5.94161 7.48334 4.64994 4.975 4.96661Z" fill="#323232"/>
</g>
<defs>
<clipPath id="clip0_2344_32539">
<rect width="20" height="20" fill="white"/>
</clipPath>
</defs>
</svg>
