<svg width="20" height="20" viewBox="0 0 20 20" fill="none" xmlns="http://www.w3.org/2000/svg">
<g id="checkroom" clip-path="url(#clip0_2344_32535)">
<g id="Group">
<path id="Vector" d="M18 15.1667L10.8333 9.79172V9.03338C12.2083 8.62505 13.1666 7.22505 12.8583 5.65838C12.6416 4.56672 11.775 3.65838 10.6833 3.40838C8.78331 2.97505 7.08331 4.41672 7.08331 6.25005H8.74997C8.74997 5.55838 9.30831 5.00005 9.99997 5.00005C10.6916 5.00005 11.25 5.55838 11.25 6.25005C11.25 6.95005 10.675 7.51672 9.97497 7.50005C9.52497 7.49172 9.16664 7.87505 9.16664 8.32505V9.79172L1.99997 15.1667C1.35831 15.6501 1.69997 16.6667 2.49997 16.6667H9.99997H17.5C18.3 16.6667 18.6416 15.6501 18 15.1667ZM4.99997 15.0001L9.99997 11.2501L15 15.0001H4.99997Z" fill="#323232"/>
</g>
</g>
<defs>
<clipPath id="clip0_2344_32535">
<rect width="20" height="20" fill="white"/>
</clipPath>
</defs>
</svg>
