<svg width="20" height="20" viewBox="0 0 20 20" fill="none" xmlns="http://www.w3.org/2000/svg">
<g id="elderly" clip-path="url(#clip0_2344_32542)">
<path id="Vector" d="M11.25 4.58333C12.1667 4.58333 12.9167 3.83333 12.9167 2.91667C12.9167 2 12.1667 1.25 11.25 1.25C10.3333 1.25 9.58333 2 9.58333 2.91667C9.58333 3.83333 10.3333 4.58333 11.25 4.58333ZM16.6667 10.4167V19.1667H15.8333V10.4167C15.8333 10.1833 15.65 10 15.4167 10C15.1833 10 15 10.1833 15 10.4167V11.25H14.1667V10.675C12.95 10.3583 11.9167 9.6 11.2417 8.575C10.9833 9.3 10.8333 10.0583 10.8333 10.8333C10.8333 11.025 10.85 11.2167 10.8583 11.4083L12.5 13.75V19.1667H10.8333V15L9.35 12.8833L9.16667 15.8333L6.66667 19.1667L5.33333 18.1667L7.5 15.275V10.8333C7.5 9.875 7.65 8.925 7.91667 8.00833L6.66667 8.71667V11.6667H5V7.75L9.5 5.19167V5.2C9.99167 4.94167 10.6 4.925 11.1167 5.225C11.4167 5.4 11.6417 5.65 11.7833 5.93333L12.4417 7.325C12.9833 8.41667 14.1167 9.16667 15.4167 9.16667C16.1083 9.16667 16.6667 9.725 16.6667 10.4167Z" fill="#323232"/>
</g>
<defs>
<clipPath id="clip0_2344_32542">
<rect width="20" height="20" fill="white"/>
</clipPath>
</defs>
</svg>
