<svg width="20" height="20" viewBox="0 0 20 20" fill="none" xmlns="http://www.w3.org/2000/svg">
<g clip-path="url(#clip0_2344_32424)">
<path d="M15.0502 19.158H16.4335C17.1335 19.158 17.7085 18.6247 17.7918 17.9413L19.1668 4.20801H15.0002V0.833008H13.3585V4.20801H9.21683L9.46683 6.15801C10.8918 6.54967 12.2252 7.25801 13.0252 8.04134C14.2252 9.22467 15.0502 10.4497 15.0502 12.4497V19.158ZM0.833496 18.3247V17.4997H13.3585V18.3247C13.3585 18.783 12.9835 19.158 12.5168 19.158H1.67516C1.2085 19.158 0.833496 18.783 0.833496 18.3247ZM13.3585 12.4913C13.3585 5.82467 0.833496 5.82467 0.833496 12.4913H13.3585ZM0.850163 14.1663H13.3502V15.833H0.850163V14.1663Z" fill="#323232"/>
</g>
<defs>
<clipPath id="clip0_2344_32424">
<rect width="20" height="20" fill="white"/>
</clipPath>
</defs>
</svg>
