<svg width="20" height="20" viewBox="0 0 20 20" fill="none" xmlns="http://www.w3.org/2000/svg">
<g id="fitness_center" clip-path="url(#clip0_2344_32427)">
<path id="Vector" d="M17.1415 12.3837L18.3332 11.192L17.1415 10.0003L14.1665 12.9753L7.02484 5.83366L9.99984 2.85866L8.80817 1.66699L7.6165 2.85866L6.42484 1.66699L4.6415 3.45033L3.44984 2.25866L2.25817 3.45033L3.44984 4.64199L1.6665 6.42533L2.85817 7.61699L1.6665 8.80866L2.85817 10.0003L5.83317 7.02533L12.9748 14.167L9.99984 17.142L11.1915 18.3337L12.3832 17.142L13.5748 18.3337L15.3582 16.5503L16.5498 17.742L17.7415 16.5503L16.5498 15.3587L18.3332 13.5753L17.1415 12.3837Z" fill="#323232"/>
</g>
<defs>
<clipPath id="clip0_2344_32427">
<rect width="20" height="20" fill="white"/>
</clipPath>
</defs>
</svg>
