<svg width="20" height="20" viewBox="0 0 20 20" fill="none" xmlns="http://www.w3.org/2000/svg">
<g id="moped" clip-path="url(#clip0_2344_32545)">
<g id="Group">
<g id="Group_2">
<path id="Vector" d="M15.8333 5.83329C15.8333 4.91663 15.0833 4.16663 14.1666 4.16663H11.6666V5.83329H14.1666V8.04163L11.2666 11.6666H8.33329V7.49996H4.99996C3.15829 7.49996 1.66663 8.99163 1.66663 10.8333V13.3333H3.33329C3.33329 14.7166 4.44996 15.8333 5.83329 15.8333C7.21663 15.8333 8.33329 14.7166 8.33329 13.3333H12.0666L15.8333 8.62496V5.83329ZM5.83329 14.1666C5.37496 14.1666 4.99996 13.7916 4.99996 13.3333H6.66663C6.66663 13.7916 6.29163 14.1666 5.83329 14.1666Z" fill="#323232"/>
<path id="Vector_2" d="M8.33329 5H4.16663V6.66667H8.33329V5Z" fill="#323232"/>
<path id="Vector_3" d="M15.8333 10.8333C14.4499 10.8333 13.3333 11.9499 13.3333 13.3333C13.3333 14.7166 14.4499 15.8333 15.8333 15.8333C17.2166 15.8333 18.3333 14.7166 18.3333 13.3333C18.3333 11.9499 17.2166 10.8333 15.8333 10.8333ZM15.8333 14.1666C15.3749 14.1666 14.9999 13.7916 14.9999 13.3333C14.9999 12.8749 15.3749 12.4999 15.8333 12.4999C16.2916 12.4999 16.6666 12.8749 16.6666 13.3333C16.6666 13.7916 16.2916 14.1666 15.8333 14.1666Z" fill="#323232"/>
</g>
</g>
</g>
<defs>
<clipPath id="clip0_2344_32545">
<rect width="20" height="20" fill="white"/>
</clipPath>
</defs>
</svg>
