<svg width="20" height="20" viewBox="0 0 20 20" fill="none" xmlns="http://www.w3.org/2000/svg">
<g clip-path="url(#clip0_2344_32531)">
<path d="M7.12502 9.99999C6.23335 9.40832 5.25002 8.94166 4.18335 8.65833C5.25002 8.94166 6.23335 9.40832 7.12502 9.99999ZM15.8167 8.65833C14.7417 8.94166 13.7417 9.41666 12.8417 10.025C13.7417 9.41666 14.7417 8.94166 15.8167 8.65833Z" fill="#323232"/>
<path d="M12.9084 8.02496C12.7584 5.69996 11.8167 3.43329 10.05 1.66663C8.26669 3.44996 7.28335 5.71663 7.09169 8.02496C8.15835 8.59163 9.14169 9.32496 10 10.2166C10.8584 9.33329 11.8417 8.59996 12.9084 8.02496ZM7.49169 10.2333C7.37502 10.15 7.24169 10.075 7.11669 9.99163C7.24169 10.0833 7.37502 10.15 7.49169 10.2333ZM12.8417 10.025C12.7334 10.1 12.6167 10.1583 12.5084 10.2416C12.6167 10.1583 12.7334 10.1 12.8417 10.025ZM10 12.875C8.20835 10.1416 5.15002 8.33329 1.66669 8.33329C1.66669 12.7666 4.46669 16.5166 8.35835 17.9083C8.88335 18.1 9.43335 18.2416 10 18.3333C10.5667 18.2333 11.1084 18.0916 11.6417 17.9083C15.5334 16.5166 18.3334 12.7666 18.3334 8.33329C14.85 8.33329 11.7917 10.1416 10 12.875Z" fill="#323232"/>
</g>
<defs>
<clipPath id="clip0_2344_32531">
<rect width="20" height="20" fill="white"/>
</clipPath>
</defs>
</svg>
