<svg width="20" height="20" viewBox="0 0 20 20" fill="none" xmlns="http://www.w3.org/2000/svg">
<g id="sports_bar" clip-path="url(#clip0_2344_32563)">
<path id="Vector" d="M15.8333 7.50002H14.5333C14.825 7.00835 15 6.44168 15 5.83335C15 3.99168 13.5083 2.50002 11.6667 2.50002C11.3833 2.50002 11.1167 2.54168 10.85 2.60835C10.1667 2.04168 9.3 1.68335 8.33333 1.68335C6.75833 1.68335 5.40833 2.60835 4.775 3.94168C3.45833 4.38335 2.5 5.61668 2.5 7.08335C2.5 8.63335 3.56667 9.92502 5 10.3V17.5H14.1667V15.8334H15.8333C16.75 15.8334 17.5 15.0834 17.5 14.1667V9.16668C17.5 8.25002 16.75 7.50002 15.8333 7.50002ZM5.83333 8.75002C4.91667 8.75002 4.16667 8.00002 4.16667 7.08335C4.16667 6.37502 4.625 5.75002 5.30833 5.51668L5.975 5.29168L6.275 4.65835C6.66667 3.85002 7.45 3.35002 8.33333 3.35002C8.99167 3.35002 9.49167 3.64168 9.78333 3.89168L10.4333 4.43335C10.4333 4.43335 10.9667 4.16668 11.6583 4.16668C12.575 4.16668 13.325 4.91668 13.325 5.83335H10.825C8.05833 5.83335 7.625 8.75002 5.83333 8.75002ZM15.8333 14.1667H14.1667V9.16668H15.8333V14.1667Z" fill="#323232"/>
</g>
<defs>
<clipPath id="clip0_2344_32563">
<rect width="20" height="20" fill="white"/>
</clipPath>
</defs>
</svg>
